Coordinates
nRows=4
nColumns=38

# SIMM Motion File Header:
name Coordinates
datacolumns 38
datarows 4
otherdata 1
range 0.43400000000000000000 0.43700000000000000000

Units are S.I. units (second, meters, Newtons, ...)
Angles are in degrees.

endheader
time	pelvis_tilt	pelvis_list	pelvis_rotation	pelvis_tx	pelvis_ty	pelvis_tz	hip_flexion_r	hip_adduction_r	hip_rotation_r	knee_angle_r	ankle_angle_r	subtalar_angle_r	mtp_angle_r	hip_flexion_l	hip_adduction_l	hip_rotation_l	knee_angle_l	ankle_angle_l	subtalar_angle_l	mtp_angle_l	lumbar_extension	lumbar_bending	lumbar_rotation	arm_flex_r	arm_add_r	arm_rot_r	elbow_flex_r	pro_sup_r	wrist_flex_r	wrist_dev_r	arm_flex_l	arm_add_l	arm_rot_l	elbow_flex_l	pro_sup_l	wrist_flex_l	wrist_dev_l
      0.43400000000000000000	     -5.61999607463106180000	      1.42801688069685630000	     -0.46096696728492842000	      0.97525670983134993000	      1.09829879695708740000	     -0.26748499665471659000	    -18.85740239791935100000	      3.77917549378345810000	     -0.39220561313783575000	    -36.04427998096149100000	    -11.40818271842767500000	     -0.00000000000006694228	      0.00000000000006554215	     36.93355917907958700000	      4.28963988125430080000	      1.24795567976906250000	    -20.04317364271199200000	      8.63475862738836850000	      0.00000000000001203735	      0.00000000000002446009	     -8.20626270481588630000	     -1.85401084427793860000	     18.52468330257779200000	     -6.36601989348114650000	    -26.97646129109741900000	      1.45242444380435630000	    140.80555711371980000000	    110.18321286626887000000	      0.00000000000000415011	      0.00000000000002167114	    -38.00152939857654400000	    -24.75709921534978300000	      4.30522663637605250000	    123.29669725890487000000	     93.02573776910904300000	      0.00000000000000545687	     -0.00000000000000963434
      0.43500000000000000000	     -5.59794442099467120000	      1.39555667625401610000	     -0.42731299052761768000	      0.97531092269836550000	      1.09825673012087170000	     -0.26744511533913873000	    -18.73392251074521300000	      3.84098823709831730000	     -0.36775466611868102000	    -36.63804051816961000000	    -11.36284637262105900000	     -0.00000000000006723835	      0.00000000000006584086	     36.78977934236111500000	      4.30126377481118640000	      1.23104960710522790000	    -19.67175668011478600000	      8.67024485418086850000	      0.00000000000001211063	      0.00000000000002463233	     -8.22557370917790640000	     -1.81891785163936510000	     18.49155435211188700000	     -6.49291013109273240000	    -26.98612414201000900000	      1.49144167152917580000	    140.76357552267697000000	    110.26646531133458000000	      0.00000000000000418690	      0.00000000000002177478	    -37.95839345430482600000	    -24.73817379360839300000	      4.29420948850741800000	    123.28031357919049000000	     93.08671112532144300000	      0.00000000000000549897	     -0.00000000000000969446
      0.43600000000000000000	     -5.57501811722727950000	      1.36581248758129030000	     -0.39474925262820004000	      0.97535865317120896000	      1.09820638164834340000	     -0.26740283820625776000	    -18.60650072129600100000	      3.89933829346019940000	     -0.34595075104352130000	    -37.23957093199630500000	    -11.31959043198688500000	     -0.00000000000006753310	      0.00000000000006613925	     36.64902157858456600000	      4.31409067746074640000	      1.20610793308932670000	    -19.31667127520366700000	      8.70402567667930600000	      0.00000000000001218441	      0.00000000000002480570	     -8.24681089579615540000	     -1.78718341063337950000	     18.45717055800615500000	     -6.61982222475709920000	    -26.99444030217724900000	      1.52885876543036540000	    140.71604686301168000000	    110.35073021615977000000	      0.00000000000000422249	      0.00000000000002187771	    -37.91214748495176700000	    -24.71931022579718700000	      4.28370339447537860000	    123.26235609371614000000	     93.15000919891258500000	      0.00000000000000554030	     -0.00000000000000975445
      0.43700000000000000000	     -5.55122001311506090000	      1.33881462268667000000	     -0.36325514227403471000	      0.97539987105955861000	      1.09814777678258380000	     -0.26735820860895487000	    -18.47521272489502300000	      3.95415463207336780000	     -0.32685280622384316000	    -37.84869339015105500000	    -11.27839219760321000000	     -0.00000000000006782833	      0.00000000000006643906	     36.51128013145739000000	      4.32819276429512100000	      1.17322164426294880000	    -18.97791194331049500000	      8.73611412113094230000	      0.00000000000001225248	      0.00000000000002497898	     -8.26997877239276670000	     -1.75883973708831620000	     18.42147261463697200000	     -6.74667338527927640000	    -27.00141504267220700000	      1.56469907421107960000	    140.66301225212320000000	    110.43582864194653000000	      0.00000000000000425824	      0.00000000000002198467	    -37.86283990353172200000	    -24.70049927524136300000	      4.27365765168304180000	    123.24286211242969000000	     93.21552055932677700000	      0.00000000000000558120	     -0.00000000000000981392
